<?xml version="1.0" encoding="UTF-8"?>
<svg width="24" height="24" viewBox="0 0 24 24" fill="none" xmlns="http://www.w3.org/2000/svg">
  <path d="M12 15C13.6569 15 15 13.6569 15 12C15 10.3431 13.6569 9 12 9C10.3431 9 9 10.3431 9 12C9 13.6569 10.3431 15 12 15Z" stroke="currentColor" stroke-width="1.5"/>
  <path d="M19.6232 12.775C19.7591 12.5363 19.8271 12.2686 19.8271 11.9954C19.8271 11.7222 19.7591 11.4545 19.6232 11.2158L18.5154 9.35313C18.3813 9.11713 18.1855 8.92133 17.9495 8.78723C17.7136 8.65313 17.4459 8.58513 17.1727 8.58913H14.9286C14.6554 8.58513 14.3877 8.65313 14.1518 8.78723C13.9158 8.92133 13.72 9.11713 13.5859 9.35313L12.4781 11.2158C12.3422 11.4545 12.2742 11.7222 12.2742 11.9954C12.2742 12.2686 12.3422 12.5363 12.4781 12.775L13.5859 14.6377C13.72 14.8737 13.9158 15.0695 14.1518 15.2036C14.3877 15.3377 14.6554 15.4057 14.9286 15.4017H17.1727C17.4459 15.4057 17.7136 15.3377 17.9495 15.2036C18.1855 15.0695 18.3813 14.8737 18.5154 14.6377L19.6232 12.775Z" stroke="currentColor" stroke-width="1.5"/>
  <path d="M2 12C2 13.9778 2.58649 15.9112 3.6853 17.5557C4.78412 19.2002 6.3459 20.4819 8.17317 21.2388C10.0004 21.9957 12.0111 22.1937 13.9509 21.8079C15.8907 21.422 17.6725 20.4696 19.0711 19.0711C20.4696 17.6725 21.422 15.8907 21.8079 13.9509C22.1937 12.0111 21.9957 10.0004 21.2388 8.17317C20.4819 6.3459 19.2002 4.78412 17.5557 3.6853C15.9112 2.58649 13.9778 2 12 2" stroke="currentColor" stroke-width="1.5" stroke-linecap="round"/>
</svg>
